<?xml version="1.0" encoding="UTF-8"?>
<!DOCTYPE svg PUBLIC "-//W3C//DTD SVG 1.1//EN" "http://www.w3.org/Graphics/SVG/1.1/DTD/svg11.dtd">
<!-- Creator: CorelDRAW 2019 (64-Bit) -->
<svg xmlns="http://www.w3.org/2000/svg" xml:space="preserve" width="1256px" height="342px" version="1.1" style="shape-rendering:geometricPrecision; text-rendering:geometricPrecision; image-rendering:optimizeQuality; fill-rule:evenodd; clip-rule:evenodd"
viewBox="0 0 1254.32 341.71"
 xmlns:xlink="http://www.w3.org/1999/xlink"
 xmlns:xodm="http://www.corel.com/coreldraw/odm/2003">
 <defs>
  <style type="text/css">
   <![CDATA[
    .fil0 {fill:#5CC6D0;fill-rule:nonzero}
    .fil1 {fill:#D0D620;fill-rule:nonzero}
   ]]>
  </style>
 </defs>
 <g id="Layer_x0020_1">
  <metadata id="CorelCorpID_0Corel-Layer"/>
  <g id="_2517448870864">
   <path class="fil0" d="M129.6 1.44c17.42,0 33.96,3.38 49.6,10.14 15.65,6.75 29.34,16 41.07,27.73 11.73,11.73 21.07,25.42 28,41.07 6.93,15.64 10.4,32.35 10.4,50.13 0,17.78 -3.29,34.49 -9.87,50.14 -6.57,15.64 -15.64,29.33 -27.2,41.06 -11.55,11.74 -25.24,20.98 -41.06,27.74 -15.83,6.75 -32.81,10.13 -50.94,10.13 -22.04,0 -41.95,-4.45 -59.73,-13.33l0 61.33c0,9.24 -3.38,17.24 -10.14,24 -6.75,6.76 -15.11,10.13 -25.06,10.13 -8.89,0 -16.8,-3.11 -23.74,-9.33 -6.93,-6.22 -10.58,-13.95 -10.93,-23.2l0 -178.67c0,-17.42 3.47,-33.96 10.4,-49.6 6.93,-15.64 16.27,-29.33 28,-41.07 11.73,-11.73 25.42,-21.06 41.07,-28 15.64,-6.93 32.35,-10.4 50.13,-10.4zm-59.73 129.07c0,8.89 1.6,16.98 4.8,24.27 3.2,7.29 7.55,13.6 13.06,18.93 5.52,5.34 11.92,9.51 19.2,12.53 7.29,3.03 14.85,4.54 22.67,4.54 8.53,0 16.36,-1.6 23.47,-4.8 7.11,-3.2 13.33,-7.56 18.67,-13.07 5.33,-5.51 9.51,-11.91 12.53,-19.2 3.02,-7.29 4.53,-15.02 4.53,-23.2 0,-8.18 -1.6,-15.91 -4.8,-23.2 -3.2,-7.29 -7.46,-13.6 -12.8,-18.93 -5.33,-5.34 -11.55,-9.51 -18.66,-12.54 -7.12,-3.02 -14.76,-4.53 -22.94,-4.53 -8.53,0 -16.44,1.6 -23.73,4.8 -7.29,3.2 -13.6,7.47 -18.94,12.8 -5.33,5.33 -9.51,11.56 -12.53,18.67 -3.02,7.11 -4.53,14.75 -4.53,22.93z"/>
   <path class="fil0" d="M349.2 41.33c9.24,0 16.98,3.38 23.2,10.13 6.22,6.76 9.69,14.94 10.4,24.54l0 188.8c0,9.6 -3.02,17.6 -9.07,24.01 -6.04,6.4 -14.22,9.95 -24.53,10.66 -9.25,0 -17.07,-2.84 -23.47,-8.53 -6.4,-5.69 -10.31,-13.69 -11.73,-24l0 -193.07c0.71,-9.25 4.44,-16.89 11.2,-22.94 6.75,-6.04 14.75,-9.24 24,-9.6z"/>
   <path class="fil0" d="M485.12 0c9.96,0 18.31,3.47 25.07,10.4 6.75,6.93 10.49,15.56 11.2,25.87l0 42.66 91.73 0c10.31,0 18.67,3.56 25.07,10.67 6.4,7.11 9.6,15.47 9.6,25.07 0,9.24 -3.56,17.51 -10.67,24.8 -7.11,7.29 -15.11,10.93 -24,10.93l-91.73 0 0 58.67c0,8.18 1.51,15.91 4.53,23.2 3.02,7.29 7.2,13.78 12.53,19.47 5.34,5.69 11.65,10.13 18.94,13.33 7.29,3.2 15.2,4.8 23.73,4.8 9.25,0 17.16,-1.24 23.73,-3.73 6.58,-2.49 12.36,-6.23 17.34,-11.2 7.46,-6.4 15.73,-9.69 24.8,-9.87 9.07,-0.18 17.51,3.29 25.33,10.4 3.56,3.2 6.22,6.84 8,10.93 1.78,4.09 2.76,8.36 2.94,12.8 0.17,4.45 -0.45,8.8 -1.87,13.07 -1.42,4.27 -3.73,8 -6.93,11.2 -12.45,12.09 -26.14,21.33 -41.07,27.73 -14.93,6.4 -30.94,9.6 -48,9.6 -18.49,0 -35.91,-3.11 -52.27,-9.33 -16.36,-6.22 -30.76,-15.11 -43.2,-26.67 -12.45,-11.55 -22.31,-25.42 -29.6,-41.6 -7.29,-16.17 -11.11,-34.22 -11.47,-54.13l0 -175.47c0,-9.6 3.65,-17.6 10.94,-24 7.28,-6.4 15.73,-9.6 25.33,-9.6z"/>
   <path class="fil1" d="M690.47 83.2l0 -47.47c0,-9.95 3.46,-18.4 10.4,-25.33 6.93,-6.93 15.2,-10.4 24.8,-10.4 10.31,0 18.93,3.47 25.86,10.4 6.94,6.93 10.41,15.38 10.41,25.33l0 47.47c0,14.58 4.88,26.76 14.66,36.53 9.78,9.78 21.96,14.67 36.54,14.67 14.57,0 26.84,-4.89 36.8,-14.67 9.95,-9.77 14.93,-21.95 14.93,-36.53l0 -47.47c0,-9.95 3.47,-18.4 10.4,-25.33 6.93,-6.93 15.2,-10.4 24.8,-10.4 10.31,0 18.93,3.47 25.87,10.4 6.93,6.93 10.4,15.38 10.4,25.33l0 47.47 0 0.53c0,13.87 -2.22,27.12 -6.67,39.74 -4.44,12.62 -10.58,24.09 -18.4,34.4 -7.82,10.31 -17.16,19.2 -28,26.67 -10.84,7.46 -22.67,12.97 -35.47,16.53l0 104c0,9.96 -3.46,18.4 -10.4,25.34 -6.93,6.93 -15.2,10.39 -24.8,10.39 -10.31,0 -18.93,-3.46 -25.87,-10.39 -6.93,-6.94 -10.39,-15.38 -10.39,-25.34l0 -104.53c-12.45,-3.91 -23.92,-9.6 -34.4,-17.07 -10.49,-7.47 -19.56,-16.36 -27.21,-26.67 -7.64,-10.31 -13.6,-21.69 -17.86,-34.13 -4.27,-12.45 -6.4,-25.6 -6.4,-39.47z"/>
   <path class="fil1" d="M1029.78 40.71c9.25,0 17.42,3.47 24.54,10.4 7.11,6.93 10.66,15.38 10.66,25.34l0 93.86c0,8.18 1.6,15.92 4.8,23.2 3.2,7.29 7.47,13.6 12.8,18.94 5.34,5.33 11.65,9.6 18.94,12.8 7.29,3.2 15.02,4.8 23.2,4.8 7.82,0 15.29,-1.42 22.4,-4.27 7.11,-2.84 13.42,-6.75 18.93,-11.73 5.51,-4.98 9.87,-11.02 13.07,-18.14 3.2,-7.11 4.8,-14.75 4.8,-22.93l0 -97.07c0,-8.89 3.37,-16.89 10.13,-24 6.76,-7.11 14.93,-10.84 24.53,-11.2 9.61,0 17.87,3.47 24.81,10.4 6.93,6.93 10.57,14.67 10.93,23.2l0 96c0,17.78 -3.38,34.49 -10.13,50.14 -6.76,15.64 -16,29.33 -27.74,41.07 -11.73,11.73 -25.42,20.97 -41.07,27.73 -15.64,6.76 -32.53,10.13 -50.66,10.13 -17.07,0.71 -33.43,-2.22 -49.07,-8.8 -15.65,-6.58 -29.42,-15.64 -41.33,-27.2 -11.92,-11.55 -21.43,-25.06 -28.54,-40.53 -7.11,-15.47 -10.67,-31.74 -10.67,-48.8l0 -98.14c0,-9.24 3.29,-17.33 9.87,-24.26 6.58,-6.94 14.85,-10.58 24.8,-10.94z"/>
  </g>
 </g>
</svg>
